<svg id="Layer_1" data-name="Layer 1" xmlns="http://www.w3.org/2000/svg" viewBox="0 0 132.03 30.23"><defs><style>.cls-1{fill:#6061aa;}</style></defs><title>allln1</title><path class="cls-1" d="M220.11,215.43l-2.38,7.21h-3.06l7.79-22.92H226l7.82,22.92h-3.16l-2.45-7.21Zm7.52-2.31-2.25-6.6c-.51-1.49-.85-2.85-1.19-4.18h-.07c-.34,1.36-.71,2.75-1.15,4.15l-2.24,6.63Z" transform="translate(-183.72 -197.54)"/><path class="cls-1" d="M236.53,198.5h3v24.14h-3Z" transform="translate(-183.72 -197.54)"/><path class="cls-1" d="M243.88,198.5h3v24.14h-3Z" transform="translate(-183.72 -197.54)"/><path class="cls-1" d="M251.23,198.5h3v24.14h-3Z" transform="translate(-183.72 -197.54)"/><path class="cls-1" d="M258.59,210.63c0-1.69,0-3.09-.13-4.45h2.65l.17,2.72h.07a6,6,0,0,1,5.44-3.09c2.28,0,5.81,1.36,5.81,7v9.83h-3v-9.49c0-2.65-1-4.86-3.81-4.86a4.25,4.25,0,0,0-4,3.06,4.16,4.16,0,0,0-.2,1.39v9.9h-3Z" transform="translate(-183.72 -197.54)"/><path class="cls-1" d="M279.76,203.33h-.06l-3.85,2.07-.57-2.28,4.82-2.58h2.55v22.1h-2.89Z" transform="translate(-183.72 -197.54)"/><path class="cls-1" d="M288.74,220.87a2,2,0,0,1,2-2.14,2.14,2.14,0,0,1,0,4.28A2,2,0,0,1,288.74,220.87Z" transform="translate(-183.72 -197.54)"/><path class="cls-1" d="M305.75,222.64l-.24-2.08h-.1a6.14,6.14,0,0,1-5,2.45,4.69,4.69,0,0,1-5-4.73c0-4,3.54-6.15,9.9-6.11v-.35c0-1.36-.38-3.8-3.74-3.8a8.21,8.21,0,0,0-4.29,1.22l-.68-2a10.27,10.27,0,0,1,5.41-1.46c5,0,6.25,3.43,6.25,6.73v6.15a22.64,22.64,0,0,0,.28,3.95Zm-.45-8.4c-3.26-.07-7,.51-7,3.7a2.66,2.66,0,0,0,2.83,2.86,4.08,4.08,0,0,0,4-2.75,2.94,2.94,0,0,0,.17-1Z" transform="translate(-183.72 -197.54)"/><path class="cls-1" d="M315.75,201.56a1.86,1.86,0,0,1-3.71,0,1.82,1.82,0,0,1,1.87-1.87A1.77,1.77,0,0,1,315.75,201.56Zm-3.33,21.08V206.18h3v16.46Z" transform="translate(-183.72 -197.54)"/><polygon class="cls-1" points="19.52 15.4 0 30.23 8.94 17.64 1.94 14.84 21.46 0 12.52 12.6 19.52 15.4"/></svg>